<?xml version="1.0" encoding="UTF-8"?>
<svg id="Layer_1" data-name="Layer 1" xmlns="http://www.w3.org/2000/svg" viewBox="0 0 201 190.41">
  <defs>
    <style>
      .cls-1 {
        fill: #fff;
      }

      .cls-2 {
        stroke: red;
      }

      .cls-2, .cls-3 {
        stroke-miterlimit: 10;
      }

      .cls-3 {
        stroke: #fff;
      }

      .cls-4 {
        fill: red;
      }
    </style>
  </defs>
  <g>
    <path class="cls-3" d="m166.04,164.18c1.52-10.13,7.41-8.91,7.83-9.19l21.1,3.15c-2.58-9.18-10.33-16.46-20.38-17.96-4.31-.64-8.52-.15-12.33,1.27L54.61,33.8c2.96-8.42,1.3-18.14-5.14-25.18C42.6,1.12,32.23-1.23,23.18,1.76l14.41,15.74c0,.35,4.31,4.71-3.24,11.62-7.55,6.92-11.36,2.26-11.86,2.21l-14.42-15.73c-3.77,8.76-2.34,19.29,4.53,26.79,6.97,7.61,17.57,9.92,26.73,6.69l107.86,107.86c-.45,1.37-.8,2.79-1.02,4.27-2.03,13.66,7.38,26.38,21.04,28.42,10.05,1.5,19.59-3.2,24.74-11.23l-21.11-3.15c-.22-.28-6.31-.94-4.8-11.07Zm-18.28-21.1c-1.5,1.5-5.03,3.64-6.43,2.24-30.09-30.22-60.34-60.34-90.5-90.5-2.33-2.33-.76-6.96.7-8.43,1.5-1.52,5.12-2.98,7.92-.18,29.82,29.58,59.4,59.4,89.1,89.1,1.76,1.76.99,5.99-.79,7.77Z"/>
    <path class="cls-3" d="m59.46,46.21c-2.8-2.8-6.42-1.33-7.92.18-1.46,1.47-3.03,6.11-.7,8.43,30.15,30.15,60.41,60.28,90.5,90.5,1.4,1.4,4.93-.74,6.43-2.24,1.78-1.78,2.55-6.02.79-7.77-29.7-29.7-59.28-59.52-89.1-89.1Z"/>
  </g>
  <path class="cls-3" d="m30.16,175.25l-21.11,3.15c5.15,8.03,14.69,12.73,24.74,11.23,13.66-2.04,23.07-14.76,21.04-28.42-.22-1.48-.57-2.9-1.02-4.27l107.86-107.86c9.16,3.23,19.76.92,26.73-6.69,6.87-7.5,8.3-18.03,4.53-26.79l-14.42,15.73c-.5.05-4.31,4.71-11.86-2.21-7.55-6.91-3.24-11.27-3.24-11.62l14.41-15.74c-9.05-2.99-19.42-.64-26.29,6.86-6.44,7.04-8.1,16.76-5.14,25.18l-107.65,107.65c-3.81-1.42-8.02-1.91-12.33-1.27-10.05,1.5-17.8,8.78-20.38,17.96l21.1-3.15c.42.28,6.31-.94,7.83,9.19,1.51,10.13-4.58,10.79-4.8,11.07Z"/>
  <path class="cls-3" d="m149.26,54.83c-30.15,30.15-60.41,60.28-90.5,90.5-1.4,1.4-4.93-.74-6.43-2.24-1.78-1.78-2.55-6.02-.79-7.77,29.7-29.7,59.28-59.52,89.1-89.1,2.8-2.8,6.42-1.33,7.92.18s3.03,6.11.7,8.43Z"/>
  <rect class="cls-2" x=".5" y="57.7" width="200" height="75" rx="5" ry="5"/>
  <g>
    <rect class="cls-1" x="9" y="66.7" width="15" height="15" rx="3" ry="3"/>
    <rect class="cls-1" x="93" y="66.7" width="15" height="15" rx="3" ry="3"/>
    <rect class="cls-1" x="177" y="66.7" width="15" height="15" rx="3" ry="3"/>
    <rect class="cls-1" x="156" y="66.7" width="15" height="15" rx="3" ry="3"/>
    <rect class="cls-1" x="114" y="66.7" width="15" height="15" rx="3" ry="3"/>
    <rect class="cls-1" x="135" y="66.7" width="15" height="15" rx="3" ry="3"/>
    <rect class="cls-1" x="72" y="66.7" width="15" height="15" rx="3" ry="3"/>
    <rect class="cls-4" x="30" y="66.7" width="15" height="15" rx="3" ry="3"/>
    <rect class="cls-1" x="51" y="66.7" width="15" height="15" rx="3" ry="3"/>
  </g>
  <g>
    <rect class="cls-4" x="9" y="87.7" width="15" height="15" rx="3" ry="3"/>
    <rect class="cls-1" x="93" y="87.7" width="15" height="15" rx="3" ry="3"/>
    <rect class="cls-1" x="177" y="87.7" width="15" height="15" rx="3" ry="3"/>
    <rect class="cls-1" x="156" y="87.7" width="15" height="15" rx="3" ry="3"/>
    <rect class="cls-1" x="114" y="87.7" width="15" height="15" rx="3" ry="3"/>
    <rect class="cls-1" x="135" y="87.7" width="15" height="15" rx="3" ry="3"/>
    <rect class="cls-1" x="72" y="87.7" width="15" height="15" rx="3" ry="3"/>
    <rect class="cls-4" x="30" y="87.7" width="15" height="15" rx="3" ry="3"/>
    <rect class="cls-4" x="51" y="87.7" width="15" height="15" rx="3" ry="3"/>
  </g>
  <g>
    <rect class="cls-1" x="9" y="108.7" width="15" height="15" rx="3" ry="3"/>
    <rect class="cls-1" x="177" y="108.7" width="15" height="15" rx="3" ry="3"/>
    <rect class="cls-1" x="156" y="108.7" width="15" height="15" rx="3" ry="3"/>
    <rect class="cls-1" x="135" y="108.7" width="15" height="15" rx="3" ry="3"/>
    <rect class="cls-1" x="30" y="108.7" width="15" height="15" rx="3" ry="3"/>
    <rect class="cls-1" x="51" y="108.7" width="78" height="15" rx="3" ry="3"/>
  </g>
</svg>